<svg xmlns="http://www.w3.org/2000/svg" version="1.1" viewBox="0 0 64 80" x="0px" y="0px">
  <title>phone</title>
  <path d="M14.99 2.667c-0.75 0-1.741-0.001-2.964 0.266-1.195 0.267-2.138 0.535-2.833 0.802-1.39 0.8-2.865 2.4-4.422 5.333-0.68 1.151-1.188 2.365-1.542 3.609-0.003 0.011-0.007 0.021-0.010 0.031-0.132 0.469-0.216 0.945-0.302 1.422-0.039 0.214-0.101 0.426-0.13 0.641-0.049 0.357-0.055 0.719-0.078 1.078-0.019 0.3-0.063 0.605-0.063 0.901 0 0.009 0 0.017 0 0.026s0 0.017 0 0.026c0 0.8 0.042 1.33 0.125 2.13 0.111 0.8 0.292 1.601 0.542 2.401 0.25 0.89 0.444 1.554 0.583 2 0.124 0.31 0.408 1.029 0.682 1.734 0.080 0.21 0.101 0.295 0.193 0.531 0.417 1.067 0.667 1.869 0.75 2.135 0.534 1.464 1.138 2.827 1.781 4.13 0.522 1.101 1.070 2.16 1.677 3.135 1.409 2.286 3.194 4.604 5.266 6.974 1.145 1.357 2.357 2.737 3.703 4.161 2.531 2.481 5.001 4.575 7.422 6.349 1.213 0.918 2.418 1.779 3.609 2.516 1.243 0.776 2.624 1.482 4.073 2.146 0.609 0.283 1.236 0.544 1.88 0.781 0.467 0.186 0.896 0.4 1.38 0.573 0.251 0.083 0.888 0.331 2 0.75 0.417 0.156 0.549 0.199 0.875 0.313 0.333 0.137 0.621 0.242 0.859 0.307 0.157 0.055 0.492 0.171 0.599 0.214 0.156 0.049 0.492 0.141 0.703 0.203 0.387 0.171 0.712 0.345 1.281 0.516 0.418 0 0.808 0.066 1.182 0.156 0.066 0.017 0.134 0.036 0.198 0.052 0.349 0.095 0.69 0.204 1 0.323h2.208c0.003 0 0.007 0 0.010 0 2.557 0 5.137-0.665 7.75-2.083 2.808-1.56 4.499-3.025 5.083-4.417 0.159-0.359 0.303-0.793 0.443-1.286 0.001-0.005 0.004-0.011 0.005-0.016 0.146-0.467 0.287-0.998 0.427-1.531 0.277-1.333 0.417-2.132 0.417-2.932 0-0.533-0.042-0.801-0.125-1.068-0.021-0.032-0.177-0.14-0.224-0.188-0.221-0.259-0.57-0.552-1.109-0.896-0.008 0.015-0.023 0.032-0.031 0.047-0.494-0.325-1.027-0.671-1.807-1.099-0.528-0.267-1.277-0.8-2.25-1.333s-1.861-0.8-2.667-1.333c-0.779-0.533-1.518-0.8-2.214-1.333-0.112 0-0.458-0.264-1.042-0.797-0.584-0.267-1.081-0.535-1.5-0.802-0.389-0.267-0.777-0.266-1.167-0.266-0.555 0-1.251 0.268-2.083 1.068-0.835 0.8-1.604 1.867-2.297 2.667-0.696 1.067-1.43 1.867-2.208 2.667s-1.418 1.068-1.917 1.068c-0.251 0-0.574-0.004-0.964-0.271-0.36 0-0.639-0.266-0.833-0.266s-0.528-0.265-1-0.531c-0.472-0.267-0.736-0.536-0.792-0.536-3.808-2.133-7.074-4.531-9.797-7.198s-5.143-6.131-7.255-9.865c-0.028 0-0.194-0.269-0.5-0.802-0.278-0.533-0.472-0.801-0.583-1.068-0.083 0-0.194-0.264-0.333-0.797-0.139-0.267-0.208-0.535-0.208-0.802 0-0.533 0.388-1.335 1.167-2.135 0.806-0.8 1.666-1.33 2.583-2.13 0.945-0.533 1.81-1.335 2.589-2.135 0.806-1.067 1.208-1.597 1.208-2.13s-0.097-0.8-0.292-1.333c-0.195-0.267-0.5-0.8-0.917-1.333-0.389-0.8-0.625-1.068-0.708-1.068-0.417-0.8-0.852-1.601-1.297-2.401s-0.93-1.6-1.458-2.667c-0.528-0.8-0.944-1.602-1.25-2.135-0.973-1.867-1.708-2.931-2.208-3.198z" fill="#EAE151" /> <!-- Changed the fill color -->
  <text x="0" y="84" fill="#EAE151" font-size="5px" font-weight="bold" font-family="'Helvetica Neue', Helvetica, Arial-Unicode, Arial, Sans-serif">from the Noun Project</text>
</svg>
