<svg xmlns="http://www.w3.org/2000/svg" fill="#EAE151" xmlns:xlink="http://www.w3.org/1999/xlink" version="1.1" x="0px" y="0px" viewBox="0 0 100 125" style="enable-background:new 0 0 100 100;" xml:space="preserve"><style type="text/css">
</style><path className="st0" d="M47.762,93.748c-1.934-2.994-4.584-6.522-7.515-10.422c-9.895-13.169-22.86-30.425-22.86-45.697  C17.387,19.617,31.988,5.015,50,5.015s32.613,14.602,32.613,32.613c0,15.271-12.965,32.528-22.86,45.697  c-2.939,3.911-5.596,7.448-7.531,10.447C51.164,95.418,48.774,95.367,47.762,93.748L47.762,93.748z M50,19.104  c-10.23,0-18.525,8.294-18.525,18.525c0,16.45,19.982,24.74,31.623,13.099C74.741,39.085,66.449,19.104,50,19.104L50,19.104z   M59.356,28.272c-8.314-8.314-22.588-2.395-22.588,9.356s14.274,17.671,22.588,9.356C64.524,41.818,64.524,33.44,59.356,28.272  L59.356,28.272z M44.464,80.162c2.022,2.692,3.916,5.212,5.536,7.495c10.081-14.203,27.321-33.798,27.321-50.029  c0-15.089-12.231-27.321-27.321-27.321S22.679,22.54,22.679,37.629C22.679,51.168,35.034,67.613,44.464,80.162z"/>

</svg>